<svg version="1.1" id="Layer_1" xmlns="http://www.w3.org/2000/svg" xmlns:xlink="http://www.w3.org/1999/xlink" x="0px" y="0px"
	 width="100%" viewBox="0 0 600 480" enable-background="new 0 0 600 480" xml:space="preserve">
<path fill="#F6F9FE" opacity="1.000000" stroke="none" 
	d="
M364.000000,481.000000 
	C242.694626,481.000000 121.889267,481.000000 1.041949,481.000000 
	C1.041949,321.065002 1.041949,161.130005 1.041949,1.097496 
	C200.888672,1.097496 400.777405,1.097496 600.833069,1.097496 
	C600.833069,160.999863 600.833069,320.999908 600.833069,481.000000 
	C522.130066,481.000000 443.315033,481.000000 364.000000,481.000000 
M211.937180,264.039459 
	C223.093231,264.070251 234.421677,262.875458 245.365494,264.415039 
	C262.384125,266.809174 279.147888,271.030548 296.007080,274.537811 
	C310.916443,277.639526 325.684631,281.791901 340.740540,283.721100 
	C358.692047,286.021332 376.129517,282.196259 392.593109,274.566528 
	C396.026642,272.975311 399.238922,270.906586 402.021576,269.354431 
	C388.469116,270.220734 374.802155,271.669678 361.125305,271.769714 
	C351.745117,271.838318 342.311829,270.312653 332.971161,269.006927 
	C309.528046,265.729645 286.138031,262.074066 262.699799,258.760315 
	C245.355881,256.308197 228.125031,257.574341 210.238052,261.048401 
	C206.069946,262.344421 201.901840,263.640472 197.733734,264.936493 
	C197.849289,265.390015 197.964844,265.843536 198.080399,266.297028 
	C202.386871,265.545959 206.693359,264.794891 211.937180,264.039459 
M302.826813,251.294250 
	C313.803314,234.855469 325.711365,218.951828 335.535400,201.850998 
	C349.847900,176.937088 360.471985,150.464767 362.504028,121.242264 
	C364.508423,92.416763 346.362274,65.160828 318.879639,56.123856 
	C290.982697,46.950642 260.357910,58.120983 244.812271,82.829880 
	C233.656906,100.560677 233.274994,119.594620 237.488586,139.169586 
	C244.561569,172.028351 259.815430,201.245590 278.391052,228.862823 
	C284.637817,238.150177 291.588898,246.963791 298.455780,256.317749 
	C300.207886,254.307068 301.289490,253.065811 302.826813,251.294250 
M343.896423,298.493530 
	C351.905212,296.750519 359.753448,294.619904 366.341705,289.276520 
	C362.636841,289.172638 359.080872,289.834412 355.509338,289.932953 
	C331.283051,290.601379 307.546906,286.509430 283.784363,282.527466 
	C264.929871,279.367981 246.004364,276.200470 226.805283,279.098785 
	C220.034515,280.120880 213.397156,282.026672 206.698883,283.528992 
	C206.793777,283.949219 206.888657,284.369446 206.983551,284.789673 
	C213.236267,284.211090 219.478226,283.337067 225.743713,283.108643 
	C245.399628,282.391968 264.388184,286.466095 283.241119,291.476929 
	C302.835968,296.684906 322.368439,302.594238 343.896423,298.493530 
M170.776810,372.783844 
	C172.102783,372.029755 174.570145,371.287445 174.578079,370.519714 
	C174.656921,362.885651 174.548935,355.232452 174.029678,347.616272 
	C173.745819,343.452759 171.019211,340.033875 166.959106,339.607147 
	C161.659470,339.050171 156.116074,339.229889 150.878525,340.189545 
	C147.018280,340.896790 144.492401,344.143250 144.096161,349.248016 
	C146.345032,348.792267 149.028824,349.066681 150.126144,347.877350 
	C153.879639,343.809174 158.337708,344.099884 163.011490,344.754822 
	C166.986130,345.311798 168.758606,347.547882 168.092316,351.650208 
	C162.796951,352.080811 157.658554,352.407257 152.541245,352.937439 
	C145.857224,353.629883 143.026581,356.110413 142.649857,361.317230 
	C142.227570,367.153595 145.728348,372.289032 151.845978,372.954376 
	C156.295273,373.438232 161.156097,372.916870 165.393997,371.515167 
	C167.905807,370.684387 168.668930,371.415680 170.776810,372.783844 
M324.516663,359.282135 
	C323.277344,364.431274 324.845886,368.762939 329.297760,371.356934 
	C336.142944,375.345398 343.029755,374.071014 348.326202,371.040222 
	C351.431885,371.892395 353.538086,372.470306 356.022827,373.152069 
	C356.022827,364.509369 356.309204,356.848022 355.937592,349.218750 
	C355.604797,342.386627 351.104279,338.970154 342.798798,338.358734 
	C334.046082,337.714386 327.437988,341.293396 325.942780,347.509155 
	C325.870270,347.810608 326.010132,348.163177 326.144165,349.239136 
	C328.103424,348.770844 330.707245,348.939514 331.871490,347.726501 
	C335.853363,343.577667 340.504852,343.998322 345.305756,344.907654 
	C349.001434,345.607635 350.376343,348.016174 349.836029,351.651062 
	C344.144043,352.115143 338.822937,352.415283 333.537598,353.025574 
	C329.838928,353.452637 326.273529,354.435638 324.516663,359.282135 
M435.037659,344.645477 
	C434.242920,346.278687 433.141998,347.834625 432.706726,349.558594 
	C430.882172,356.785431 430.685852,364.044189 436.664825,369.458069 
	C442.513428,374.753967 449.705566,374.713928 456.825317,372.180267 
	C460.884583,370.735718 463.658325,367.848816 464.854248,362.354218 
	C462.062988,363.278168 459.631958,363.482391 458.010590,364.734802 
	C453.564606,368.169098 448.769165,368.389801 443.880280,366.711029 
	C440.078827,365.405701 437.765442,362.587250 438.243958,357.748779 
	C447.650513,357.748779 456.736145,357.748779 465.784546,357.748779 
	C466.310852,349.067108 463.124786,342.785858 456.980682,339.958191 
	C449.784851,336.646484 441.393921,338.250336 435.037659,344.645477 
M193.837753,338.372925 
	C190.400635,339.789276 186.185532,340.397980 183.695053,342.797058 
	C179.095047,347.228271 181.864883,355.029388 188.434464,356.902588 
	C192.717972,358.123962 197.285339,358.321594 201.632050,359.366608 
	C202.951950,359.683960 204.688065,361.162689 204.909698,362.355469 
	C205.138977,363.589325 204.122238,365.612518 203.015121,366.431427 
	C199.808487,368.803375 191.925858,367.763458 188.800278,365.436981 
	C186.871277,364.001190 184.351395,363.359222 181.417496,362.060089 
	C181.778809,368.028290 184.512390,370.839325 188.327942,371.845734 
	C192.406799,372.921631 196.834274,373.511230 201.016785,373.171234 
	C208.033737,372.600952 211.744003,368.334991 211.626083,362.308868 
	C211.528564,357.324921 207.852188,354.093994 201.073792,353.000397 
	C197.634766,352.445526 194.151306,352.044312 190.795654,351.163330 
	C189.693253,350.873932 188.205322,349.295166 188.203888,348.304108 
	C188.202271,347.193756 189.692581,345.124695 190.523087,345.130005 
	C194.837875,345.157623 199.181686,345.505035 203.449295,346.167145 
	C205.879074,346.544128 208.182434,347.736084 211.326248,348.834930 
	C208.909988,340.849731 205.077103,338.700897 193.837753,338.372925 
M400.954437,347.500000 
	C400.954437,355.775574 400.954437,364.051147 400.954437,372.477478 
	C403.161652,372.477478 404.876007,372.477478 406.425842,372.477478 
	C408.545746,367.423248 403.970917,360.970428 410.699280,357.206055 
	C414.162109,361.138947 417.891876,364.947113 421.098724,369.153931 
	C423.617004,372.457520 426.429291,373.534027 430.884064,372.270416 
	C425.377716,365.825134 420.135742,359.689331 414.728882,353.360535 
	C419.747009,348.945557 424.539520,344.729034 429.784027,340.114868 
	C418.457642,337.652100 414.982849,348.787842 406.757507,351.914978 
	C406.757507,341.595062 406.757507,331.691589 406.757507,321.746277 
	C404.645111,321.746277 402.919708,321.746277 400.954376,321.746277 
	C400.954376,330.223846 400.954376,338.361908 400.954437,347.500000 
M224.970505,349.768524 
	C224.970505,340.488800 224.970505,331.209106 224.970505,321.679138 
	C222.793900,321.679138 221.067230,321.679138 219.308121,321.679138 
	C219.308121,338.828217 219.308121,355.699799 219.308121,372.532227 
	C221.270493,372.532227 222.874405,372.532227 224.968201,372.532227 
	C224.968201,369.512817 224.644882,366.676392 225.065796,363.955109 
	C225.432724,361.582947 226.639008,359.340637 227.436020,357.146667 
	C235.825256,361.710632 237.214096,373.385773 249.300674,372.805511 
	C243.412094,365.884033 238.173569,359.726624 232.747772,353.349091 
	C237.691544,348.994720 242.503906,344.756104 247.547668,340.313660 
	C240.748917,339.249878 240.753708,339.255463 236.395676,343.002197 
	C233.367691,345.605469 230.364243,348.240967 227.242569,350.727417 
	C226.800400,351.079559 225.749252,350.667145 224.970505,349.768524 
M125.678055,372.751648 
	C127.115921,372.751648 128.553787,372.751648 130.630432,372.751648 
	C130.630432,358.012146 130.630432,343.795807 130.630432,329.171143 
	C135.868164,329.171143 140.466797,329.171143 145.354019,329.171143 
	C145.251663,326.969269 145.170319,325.219360 145.097351,323.649628 
	C132.859467,323.649628 121.126617,323.649628 109.308640,323.649628 
	C109.308640,325.645996 109.308640,327.274170 109.308640,329.380371 
	C114.239319,329.380371 118.988472,329.380371 124.123001,329.380371 
	C124.123001,341.317413 124.077667,352.780060 124.155846,364.241882 
	C124.174683,367.003754 124.602661,369.762817 125.678055,372.751648 
M276.798950,239.614670 
	C275.010345,236.437393 273.396484,233.145279 271.398926,230.105331 
	C266.295044,222.338135 261.216095,214.481445 252.434036,210.219330 
	C247.774353,207.957901 243.219498,209.622131 240.263382,214.543411 
	C237.913971,218.454681 238.922195,222.095795 243.266312,225.141998 
	C244.620285,226.091446 246.007843,227.032623 247.488541,227.755295 
	C257.625702,232.702789 267.791718,237.591187 277.822266,242.437637 
	C277.688049,242.044205 277.384125,241.153168 276.798950,239.614670 
M343.340942,217.098587 
	C341.056366,217.970383 338.135651,218.229065 336.599823,219.822525 
	C330.669678,225.975266 324.953491,232.372223 319.627869,239.053070 
	C317.071411,242.260071 315.564667,246.303864 313.582550,249.968689 
	C313.955811,250.236038 314.329041,250.503372 314.702301,250.770721 
	C317.700012,248.892517 320.604919,246.839645 323.720673,245.183502 
	C327.078339,243.398758 330.637054,241.993347 334.101593,240.408325 
	C338.169312,238.547394 342.408844,236.977707 346.254364,234.734085 
	C353.017395,230.788269 354.031342,223.251556 348.556671,219.381973 
	C347.223541,218.439697 345.594757,217.915665 343.340942,217.098587 
M388.639008,372.355255 
	C390.427856,371.289368 392.216736,370.223480 393.887817,369.227783 
	C391.871643,365.328247 389.560181,364.251465 386.201508,366.778229 
	C385.472656,367.326630 384.305237,367.371429 383.320831,367.487396 
	C378.560974,368.048187 374.143280,367.142578 371.534332,362.820526 
	C368.870087,358.406891 368.880310,353.500153 371.547028,349.068604 
	C374.049042,344.910736 378.348694,343.848267 382.869568,344.452057 
	C385.396362,344.789490 387.810059,345.973602 390.400269,346.817108 
	C391.550995,345.758636 392.745911,344.659515 393.935364,343.565369 
	C388.236908,337.666931 378.353363,336.611725 371.268951,340.895660 
	C364.493469,344.992737 361.591187,354.245209 364.502533,362.466705 
	C367.741882,371.614288 375.717010,375.094940 388.639008,372.355255 
M278.508118,339.125732 
	C276.466034,339.483582 274.423950,339.841400 272.180511,340.234497 
	C272.268341,341.891510 272.343658,343.312439 272.425903,344.864563 
	C274.666809,345.014038 276.583588,345.141907 278.849243,345.293060 
	C278.849243,350.769073 278.793854,355.903107 278.860748,361.035492 
	C278.999634,371.695007 283.090790,374.696075 294.006409,371.999817 
	C293.919922,370.427643 293.831024,368.811493 293.733490,367.037872 
	C292.491699,366.966797 291.514679,366.819244 290.548462,366.871490 
	C286.575562,367.086395 284.713684,365.365448 284.827606,361.272278 
	C284.974365,355.998688 284.863342,350.717896 284.863342,344.923218 
	C288.229340,344.923218 291.122101,344.923218 294.187500,344.923218 
	C294.064484,342.923248 293.974854,341.466217 293.863098,339.649475 
	C290.855103,339.649475 288.075500,339.649475 284.701843,339.649475 
	C284.701843,335.565399 284.701843,331.845398 284.701843,328.159088 
	C282.489929,328.159088 280.879272,328.159088 278.798706,328.159088 
	C278.798706,331.647034 278.798706,334.939117 278.508118,339.125732 
M493.023865,338.940308 
	C488.482178,339.453278 483.940491,339.966248 478.392303,340.592896 
	C477.643677,340.425110 475.515472,339.948151 473.233459,339.436707 
	C473.233459,350.969910 473.233459,361.697205 473.233459,372.454102 
	C475.257385,372.454102 476.978363,372.454102 479.019226,372.454102 
	C479.019226,366.184601 478.996674,360.222473 479.025482,354.260651 
	C479.054688,348.215424 480.945831,345.905304 486.881897,344.735504 
	C488.644897,344.388153 490.455048,344.279938 492.498016,344.031189 
	C492.746124,342.535858 492.986450,341.087524 493.023865,338.940308 
M301.847168,369.227905 
	C301.619568,374.737915 305.073547,372.510773 307.955719,372.344421 
	C307.955719,366.215851 307.939240,360.415131 307.960114,354.614563 
	C307.983582,348.103607 310.035400,345.648041 316.389557,344.573914 
	C317.976318,344.305695 319.594940,344.225922 321.513458,344.026947 
	C321.721100,342.117035 321.905273,340.423096 322.226349,337.469604 
	C316.924072,338.846588 312.572174,339.976746 309.362946,340.810181 
	C306.489532,340.313385 304.346313,339.942871 301.846924,339.510742 
	C301.846924,349.695038 301.846924,358.990906 301.847168,369.227905 
M345.304260,255.964523 
	C347.921326,250.641418 345.950134,247.007019 340.268707,246.977783 
	C332.009216,246.935257 325.790924,251.441193 319.702759,256.546082 
	C324.581818,257.204956 329.327576,257.296143 334.067902,257.174988 
	C337.620789,257.084198 341.166718,256.720123 345.304260,255.964523 
M255.192551,249.433487 
	C260.860565,249.433487 266.528564,249.433487 272.196564,249.433487 
	C272.243622,248.945801 272.290710,248.458115 272.337769,247.970428 
	C270.027557,246.407501 267.906921,244.333862 265.366577,243.390778 
	C260.475403,241.574982 255.400818,240.148560 250.297333,239.046875 
	C246.996002,238.334213 244.990082,240.873260 245.261429,243.697937 
	C245.445663,245.615677 247.370346,247.764938 249.095993,249.003632 
	C250.364838,249.914429 252.571762,249.518402 255.192551,249.433487 
M404.595764,267.519928 
	C404.595764,267.519928 404.472748,267.587250 404.595764,267.519928 
M317.446381,257.485413 
	C317.446381,257.485413 317.534149,257.441742 317.446381,257.485413 
z"/>
<path fill="#123458" opacity="1.000000" stroke="none" 
	d="
M302.598969,251.559402 
	C301.289490,253.065811 300.207886,254.307068 298.455780,256.317749 
	C291.588898,246.963791 284.637817,238.150177 278.391052,228.862823 
	C259.815430,201.245590 244.561569,172.028351 237.488586,139.169586 
	C233.274994,119.594620 233.656906,100.560677 244.812271,82.829880 
	C260.357910,58.120983 290.982697,46.950642 318.879639,56.123856 
	C346.362274,65.160828 364.508423,92.416763 362.504028,121.242264 
	C360.471985,150.464767 349.847900,176.937088 335.535400,201.850998 
	C325.711365,218.951828 313.803314,234.855469 302.598969,251.559402 
M339.209900,81.309196 
	C317.638794,58.595596 283.062897,57.345272 260.921173,78.775047 
	C244.980087,94.203522 241.567459,113.316628 245.561340,134.411484 
	C250.597610,161.012009 262.237152,184.825836 276.623383,207.389282 
	C283.279205,217.828323 290.826141,227.699188 298.438660,238.493500 
	C302.041077,233.971390 304.937531,230.573715 307.575623,226.986053 
	C327.638336,199.701645 344.282928,170.705795 351.506134,137.167542 
	C355.842957,117.031158 354.066956,98.048279 339.209900,81.309196 
z"/>
<path fill="#B2D2F2" opacity="1.000000" stroke="none" 
	d="
M211.020599,261.075714 
	C228.125031,257.574341 245.355881,256.308197 262.699799,258.760315 
	C286.138031,262.074066 309.528046,265.729645 332.971161,269.006927 
	C342.311829,270.312653 351.745117,271.838318 361.125305,271.769714 
	C374.802155,271.669678 388.469116,270.220734 402.021576,269.354431 
	C399.238922,270.906586 396.026642,272.975311 392.593109,274.566528 
	C376.129517,282.196259 358.692047,286.021332 340.740540,283.721100 
	C325.684631,281.791901 310.916443,277.639526 296.007080,274.537811 
	C279.147888,271.030548 262.384125,266.809174 245.365494,264.415039 
	C234.421677,262.875458 223.093231,264.070251 211.467484,263.669250 
	C211.005402,262.557922 211.013000,261.816803 211.020599,261.075714 
z"/>
<path fill="#7BB2E7" opacity="1.000000" stroke="none" 
	d="
M343.484741,298.618042 
	C322.368439,302.594238 302.835968,296.684906 283.241119,291.476929 
	C264.388184,286.466095 245.399628,282.391968 225.743713,283.108643 
	C219.478226,283.337067 213.236267,284.211090 206.983551,284.789673 
	C206.888657,284.369446 206.793777,283.949219 206.698883,283.528992 
	C213.397156,282.026672 220.034515,280.120880 226.805283,279.098785 
	C246.004364,276.200470 264.929871,279.367981 283.784363,282.527466 
	C307.546906,286.509430 331.283051,290.601379 355.509338,289.932953 
	C359.080872,289.834412 362.636841,289.172638 366.341705,289.276520 
	C359.753448,294.619904 351.905212,296.750519 343.484741,298.618042 
z"/>
<path fill="#1B3A5C" opacity="1.000000" stroke="none" 
	d="
M170.357727,372.761230 
	C168.668930,371.415680 167.905807,370.684387 165.393997,371.515167 
	C161.156097,372.916870 156.295273,373.438232 151.845978,372.954376 
	C145.728348,372.289032 142.227570,367.153595 142.649857,361.317230 
	C143.026581,356.110413 145.857224,353.629883 152.541245,352.937439 
	C157.658554,352.407257 162.796951,352.080811 168.092316,351.650208 
	C168.758606,347.547882 166.986130,345.311798 163.011490,344.754822 
	C158.337708,344.099884 153.879639,343.809174 150.126144,347.877350 
	C149.028824,349.066681 146.345032,348.792267 144.096161,349.248016 
	C144.492401,344.143250 147.018280,340.896790 150.878525,340.189545 
	C156.116074,339.229889 161.659470,339.050171 166.959106,339.607147 
	C171.019211,340.033875 173.745819,343.452759 174.029678,347.616272 
	C174.548935,355.232452 174.656921,362.885651 174.578079,370.519714 
	C174.570145,371.287445 172.102783,372.029755 170.357727,372.761230 
M155.120941,367.405884 
	C157.253922,367.336487 159.442535,367.550110 161.509338,367.143951 
	C167.418228,365.982758 169.220703,363.032318 167.753693,357.171417 
	C163.506577,357.447601 159.157440,357.375458 154.963684,358.147461 
	C152.745087,358.555878 149.478043,360.053162 148.996445,361.724915 
	C147.938019,365.398987 151.117065,366.722687 155.120941,367.405884 
z"/>
<path fill="#183759" opacity="1.000000" stroke="none" 
	d="
M324.661285,358.916168 
	C326.273529,354.435638 329.838928,353.452637 333.537598,353.025574 
	C338.822937,352.415283 344.144043,352.115143 349.836029,351.651062 
	C350.376343,348.016174 349.001434,345.607635 345.305756,344.907654 
	C340.504852,343.998322 335.853363,343.577667 331.871490,347.726501 
	C330.707245,348.939514 328.103424,348.770844 326.144165,349.239136 
	C326.010132,348.163177 325.870270,347.810608 325.942780,347.509155 
	C327.437988,341.293396 334.046082,337.714386 342.798798,338.358734 
	C351.104279,338.970154 355.604797,342.386627 355.937592,349.218750 
	C356.309204,356.848022 356.022827,364.509369 356.022827,373.152069 
	C353.538086,372.470306 351.431885,371.892395 348.326202,371.040222 
	C343.029755,374.071014 336.142944,375.345398 329.297760,371.356934 
	C324.845886,368.762939 323.277344,364.431274 324.661285,358.916168 
M350.064575,358.561066 
	C343.798096,358.860718 337.526733,359.107483 331.286346,359.687744 
	C331.075806,359.707336 330.389679,363.813660 331.273560,364.773712 
	C334.694061,368.488922 339.326569,368.073456 343.794830,367.044922 
	C347.747894,366.134918 350.357666,363.903229 350.064575,358.561066 
z"/>
<path fill="#1C3B5C" opacity="1.000000" stroke="none" 
	d="
M435.261078,344.356201 
	C441.393921,338.250336 449.784851,336.646484 456.980682,339.958191 
	C463.124786,342.785858 466.310852,349.067108 465.784546,357.748779 
	C456.736145,357.748779 447.650513,357.748779 438.243958,357.748779 
	C437.765442,362.587250 440.078827,365.405701 443.880280,366.711029 
	C448.769165,368.389801 453.564606,368.169098 458.010590,364.734802 
	C459.631958,363.482391 462.062988,363.278168 464.854248,362.354218 
	C463.658325,367.848816 460.884583,370.735718 456.825317,372.180267 
	C449.705566,374.713928 442.513428,374.753967 436.664825,369.458069 
	C430.685852,364.044189 430.882172,356.785431 432.706726,349.558594 
	C433.141998,347.834625 434.242920,346.278687 435.261078,344.356201 
M439.211395,348.969299 
	C438.892883,349.970551 438.574341,350.971832 438.205566,352.130981 
	C445.534210,352.130981 452.433472,352.130981 459.402496,352.130981 
	C456.973083,343.211670 446.845490,341.400269 439.211395,348.969299 
z"/>
<path fill="#183759" opacity="1.000000" stroke="none" 
	d="
M194.266296,338.343323 
	C205.077103,338.700897 208.909988,340.849731 211.326248,348.834930 
	C208.182434,347.736084 205.879074,346.544128 203.449295,346.167145 
	C199.181686,345.505035 194.837875,345.157623 190.523087,345.130005 
	C189.692581,345.124695 188.202271,347.193756 188.203888,348.304108 
	C188.205322,349.295166 189.693253,350.873932 190.795654,351.163330 
	C194.151306,352.044312 197.634766,352.445526 201.073792,353.000397 
	C207.852188,354.093994 211.528564,357.324921 211.626083,362.308868 
	C211.744003,368.334991 208.033737,372.600952 201.016785,373.171234 
	C196.834274,373.511230 192.406799,372.921631 188.327942,371.845734 
	C184.512390,370.839325 181.778809,368.028290 181.417496,362.060089 
	C184.351395,363.359222 186.871277,364.001190 188.800278,365.436981 
	C191.925858,367.763458 199.808487,368.803375 203.015121,366.431427 
	C204.122238,365.612518 205.138977,363.589325 204.909698,362.355469 
	C204.688065,361.162689 202.951950,359.683960 201.632050,359.366608 
	C197.285339,358.321594 192.717972,358.123962 188.434464,356.902588 
	C181.864883,355.029388 179.095047,347.228271 183.695053,342.797058 
	C186.185532,340.397980 190.400635,339.789276 194.266296,338.343323 
z"/>
<path fill="#173758" opacity="1.000000" stroke="none" 
	d="
M400.954407,347.000000 
	C400.954376,338.361908 400.954376,330.223846 400.954376,321.746277 
	C402.919708,321.746277 404.645111,321.746277 406.757507,321.746277 
	C406.757507,331.691589 406.757507,341.595062 406.757507,351.914978 
	C414.982849,348.787842 418.457642,337.652100 429.784027,340.114868 
	C424.539520,344.729034 419.747009,348.945557 414.728882,353.360535 
	C420.135742,359.689331 425.377716,365.825134 430.884064,372.270416 
	C426.429291,373.534027 423.617004,372.457520 421.098724,369.153931 
	C417.891876,364.947113 414.162109,361.138947 410.699280,357.206055 
	C403.970917,360.970428 408.545746,367.423248 406.425842,372.477478 
	C404.876007,372.477478 403.161652,372.477478 400.954437,372.477478 
	C400.954437,364.051147 400.954437,355.775574 400.954407,347.000000 
z"/>
<path fill="#173758" opacity="1.000000" stroke="none" 
	d="
M224.975250,350.188568 
	C225.749252,350.667145 226.800400,351.079559 227.242569,350.727417 
	C230.364243,348.240967 233.367691,345.605469 236.395676,343.002197 
	C240.753708,339.255463 240.748917,339.249878 247.547668,340.313660 
	C242.503906,344.756104 237.691544,348.994720 232.747772,353.349091 
	C238.173569,359.726624 243.412094,365.884033 249.300674,372.805511 
	C237.214096,373.385773 235.825256,361.710632 227.436020,357.146667 
	C226.639008,359.340637 225.432724,361.582947 225.065796,363.955109 
	C224.644882,366.676392 224.968201,369.512817 224.968201,372.532227 
	C222.874405,372.532227 221.270493,372.532227 219.308121,372.532227 
	C219.308121,355.699799 219.308121,338.828217 219.308121,321.679138 
	C221.067230,321.679138 222.793900,321.679138 224.970505,321.679138 
	C224.970505,331.209106 224.970505,340.488800 224.975250,350.188568 
z"/>
<path fill="#1C3B5C" opacity="1.000000" stroke="none" 
	d="
M125.260269,372.637421 
	C124.602661,369.762817 124.174683,367.003754 124.155846,364.241882 
	C124.077667,352.780060 124.123001,341.317413 124.123001,329.380371 
	C118.988472,329.380371 114.239319,329.380371 109.308640,329.380371 
	C109.308640,327.274170 109.308640,325.645996 109.308640,323.649628 
	C121.126617,323.649628 132.859467,323.649628 145.097351,323.649628 
	C145.170319,325.219360 145.251663,326.969269 145.354019,329.171143 
	C140.466797,329.171143 135.868164,329.171143 130.630432,329.171143 
	C130.630432,343.795807 130.630432,358.012146 130.630432,372.751648 
	C128.553787,372.751648 127.115921,372.751648 125.260269,372.637421 
z"/>
<path fill="#B2D2F3" opacity="1.000000" stroke="none" 
	d="
M276.939575,239.938385 
	C277.384125,241.153168 277.688049,242.044205 277.822266,242.437637 
	C267.791718,237.591187 257.625702,232.702789 247.488541,227.755295 
	C246.007843,227.032623 244.620285,226.091446 243.266312,225.141998 
	C238.922195,222.095795 237.913971,218.454681 240.263382,214.543411 
	C243.219498,209.622131 247.774353,207.957901 252.434036,210.219330 
	C261.216095,214.481445 266.295044,222.338135 271.398926,230.105331 
	C273.396484,233.145279 275.010345,236.437393 276.939575,239.938385 
z"/>
<path fill="#B2D2F2" opacity="1.000000" stroke="none" 
	d="
M343.721436,217.148956 
	C345.594757,217.915665 347.223541,218.439697 348.556671,219.381973 
	C354.031342,223.251556 353.017395,230.788269 346.254364,234.734085 
	C342.408844,236.977707 338.169312,238.547394 334.101593,240.408325 
	C330.637054,241.993347 327.078339,243.398758 323.720673,245.183502 
	C320.604919,246.839645 317.700012,248.892517 314.702301,250.770721 
	C314.329041,250.503372 313.955811,250.236038 313.582550,249.968689 
	C315.564667,246.303864 317.071411,242.260071 319.627869,239.053070 
	C324.953491,232.372223 330.669678,225.975266 336.599823,219.822525 
	C338.135651,218.229065 341.056366,217.970383 343.721436,217.148956 
z"/>
<path fill="#1B3A5B" opacity="1.000000" stroke="none" 
	d="
M388.290283,372.525818 
	C375.717010,375.094940 367.741882,371.614288 364.502533,362.466705 
	C361.591187,354.245209 364.493469,344.992737 371.268951,340.895660 
	C378.353363,336.611725 388.236908,337.666931 393.935364,343.565369 
	C392.745911,344.659515 391.550995,345.758636 390.400269,346.817108 
	C387.810059,345.973602 385.396362,344.789490 382.869568,344.452057 
	C378.348694,343.848267 374.049042,344.910736 371.547028,349.068604 
	C368.880310,353.500153 368.870087,358.406891 371.534332,362.820526 
	C374.143280,367.142578 378.560974,368.048187 383.320831,367.487396 
	C384.305237,367.371429 385.472656,367.326630 386.201508,366.778229 
	C389.560181,364.251465 391.871643,365.328247 393.887817,369.227783 
	C392.216736,370.223480 390.427856,371.289368 388.290283,372.525818 
z"/>
<path fill="#173658" opacity="1.000000" stroke="none" 
	d="
M278.653412,338.678467 
	C278.798706,334.939117 278.798706,331.647034 278.798706,328.159088 
	C280.879272,328.159088 282.489929,328.159088 284.701843,328.159088 
	C284.701843,331.845398 284.701843,335.565399 284.701843,339.649475 
	C288.075500,339.649475 290.855103,339.649475 293.863098,339.649475 
	C293.974854,341.466217 294.064484,342.923248 294.187500,344.923218 
	C291.122101,344.923218 288.229340,344.923218 284.863342,344.923218 
	C284.863342,350.717896 284.974365,355.998688 284.827606,361.272278 
	C284.713684,365.365448 286.575562,367.086395 290.548462,366.871490 
	C291.514679,366.819244 292.491699,366.966797 293.733490,367.037872 
	C293.831024,368.811493 293.919922,370.427643 294.006409,371.999817 
	C283.090790,374.696075 278.999634,371.695007 278.860748,361.035492 
	C278.793854,355.903107 278.849243,350.769073 278.849243,345.293060 
	C276.583588,345.141907 274.666809,345.014038 272.425903,344.864563 
	C272.343658,343.312439 272.268341,341.891510 272.180511,340.234497 
	C274.423950,339.841400 276.466034,339.483582 278.653412,338.678467 
z"/>
<path fill="#153557" opacity="1.000000" stroke="none" 
	d="
M493.125305,339.289734 
	C492.986450,341.087524 492.746124,342.535858 492.498016,344.031189 
	C490.455048,344.279938 488.644897,344.388153 486.881897,344.735504 
	C480.945831,345.905304 479.054688,348.215424 479.025482,354.260651 
	C478.996674,360.222473 479.019226,366.184601 479.019226,372.454102 
	C476.978363,372.454102 475.257385,372.454102 473.233459,372.454102 
	C473.233459,361.697205 473.233459,350.969910 473.233459,339.436707 
	C475.515472,339.948151 477.643677,340.425110 478.392303,340.592896 
	C483.940491,339.966248 488.482178,339.453278 493.125305,339.289734 
z"/>
<path fill="#173657" opacity="1.000000" stroke="none" 
	d="
M301.847046,368.757355 
	C301.846924,358.990906 301.846924,349.695038 301.846924,339.510742 
	C304.346313,339.942871 306.489532,340.313385 309.362946,340.810181 
	C312.572174,339.976746 316.924072,338.846588 322.226349,337.469604 
	C321.905273,340.423096 321.721100,342.117035 321.513458,344.026947 
	C319.594940,344.225922 317.976318,344.305695 316.389557,344.573914 
	C310.035400,345.648041 307.983582,348.103607 307.960114,354.614563 
	C307.939240,360.415131 307.955719,366.215851 307.955719,372.344421 
	C305.073547,372.510773 301.619568,374.737915 301.847046,368.757355 
z"/>
<path fill="#B4D3F2" opacity="1.000000" stroke="none" 
	d="
M345.010010,256.221100 
	C341.166718,256.720123 337.620789,257.084198 334.067902,257.174988 
	C329.327576,257.296143 324.581818,257.204956 319.702759,256.546082 
	C325.790924,251.441193 332.009216,246.935257 340.268707,246.977783 
	C345.950134,247.007019 347.921326,250.641418 345.010010,256.221100 
z"/>
<path fill="#B3D2F2" opacity="1.000000" stroke="none" 
	d="
M254.776611,249.569107 
	C252.571762,249.518402 250.364838,249.914429 249.095993,249.003632 
	C247.370346,247.764938 245.445663,245.615677 245.261429,243.697937 
	C244.990082,240.873260 246.996002,238.334213 250.297333,239.046875 
	C255.400818,240.148560 260.475403,241.574982 265.366577,243.390778 
	C267.906921,244.333862 270.027557,246.407501 272.337769,247.970428 
	C272.290710,248.458115 272.243622,248.945801 272.196564,249.433487 
	C266.528564,249.433487 260.860565,249.433487 254.776611,249.569107 
z"/>
<path fill="#C1D7EE" opacity="1.000000" stroke="none" 
	d="
M210.629333,261.062073 
	C211.013000,261.816803 211.005402,262.557922 210.998810,263.671387 
	C206.693359,264.794891 202.386871,265.545959 198.080399,266.297028 
	C197.964844,265.843536 197.849289,265.390015 197.733734,264.936493 
	C201.901840,263.640472 206.069946,262.344421 210.629333,261.062073 
z"/>
<path fill="#B2D2F2" opacity="1.000000" stroke="none" 
	d="
M404.534241,267.553589 
	C404.472748,267.587250 404.595764,267.519928 404.534241,267.553589 
z"/>
<path fill="#B4D3F2" opacity="1.000000" stroke="none" 
	d="
M317.490265,257.463562 
	C317.534149,257.441742 317.446381,257.485413 317.490265,257.463562 
z"/>
<path fill="#ADCFF2" opacity="1.000000" stroke="none" 
	d="
M339.453796,81.569656 
	C354.066956,98.048279 355.842957,117.031158 351.506134,137.167542 
	C344.282928,170.705795 327.638336,199.701645 307.575623,226.986053 
	C304.937531,230.573715 302.041077,233.971390 298.438660,238.493500 
	C290.826141,227.699188 283.279205,217.828323 276.623383,207.389282 
	C262.237152,184.825836 250.597610,161.012009 245.561340,134.411484 
	C241.567459,113.316628 244.980087,94.203522 260.921173,78.775047 
	C283.062897,57.345272 317.638794,58.595596 339.453796,81.569656 
M276.564087,85.977615 
	C259.143951,98.306770 253.285110,118.946114 261.966217,137.402496 
	C270.391663,155.315292 290.479523,164.755341 309.400421,159.382736 
	C325.614868,154.778610 335.799835,143.920013 338.764923,127.463387 
	C341.800964,110.612938 336.089905,96.351730 321.832489,86.631569 
	C307.461121,76.833748 292.281311,76.870659 276.564087,85.977615 
z"/>
<path fill="#E9F0F7" opacity="1.000000" stroke="none" 
	d="
M154.725586,367.321869 
	C151.117065,366.722687 147.938019,365.398987 148.996445,361.724915 
	C149.478043,360.053162 152.745087,358.555878 154.963684,358.147461 
	C159.157440,357.375458 163.506577,357.447601 167.753693,357.171417 
	C169.220703,363.032318 167.418228,365.982758 161.509338,367.143951 
	C159.442535,367.550110 157.253922,367.336487 154.725586,367.321869 
z"/>
<path fill="#E9F0F7" opacity="1.000000" stroke="none" 
	d="
M350.077148,358.985046 
	C350.357666,363.903229 347.747894,366.134918 343.794830,367.044922 
	C339.326569,368.073456 334.694061,368.488922 331.273560,364.773712 
	C330.389679,363.813660 331.075806,359.707336 331.286346,359.687744 
	C337.526733,359.107483 343.798096,358.860718 350.077148,358.985046 
z"/>
<path fill="#EBF3F9" opacity="1.000000" stroke="none" 
	d="
M439.446106,348.655060 
	C446.845490,341.400269 456.973083,343.211670 459.402496,352.130981 
	C452.433472,352.130981 445.534210,352.130981 438.205566,352.130981 
	C438.574341,350.971832 438.892883,349.970551 439.446106,348.655060 
z"/>
<path fill="#14508B" opacity="1.000000" stroke="none" 
	d="
M276.877380,85.792114 
	C292.281311,76.870659 307.461121,76.833748 321.832489,86.631569 
	C336.089905,96.351730 341.800964,110.612938 338.764923,127.463387 
	C335.799835,143.920013 325.614868,154.778610 309.400421,159.382736 
	C290.479523,164.755341 270.391663,155.315292 261.966217,137.402496 
	C253.285110,118.946114 259.143951,98.306770 276.877380,85.792114 
M272.391205,96.282066 
	C255.529739,109.931915 261.682434,137.498306 275.012817,144.915222 
	C274.265625,143.054581 273.790894,141.747513 273.224457,140.481491 
	C268.433685,129.774109 266.246552,118.703232 269.084808,107.101906 
	C270.012695,103.309113 271.674835,99.695961 273.286987,95.901550 
	C273.191071,95.934059 273.095154,95.966576 272.391205,96.282066 
M275.594391,146.507645 
	C275.594391,146.507645 275.481628,146.575653 275.594391,146.507645 
z"/>
<path fill="#0A3661" opacity="1.000000" stroke="none" 
	d="
M273.001221,96.000656 
	C271.674835,99.695961 270.012695,103.309113 269.084808,107.101906 
	C266.246552,118.703232 268.433685,129.774109 273.224457,140.481491 
	C273.790894,141.747513 274.265625,143.054581 275.012817,144.915222 
	C261.682434,137.498306 255.529739,109.931915 272.695618,96.141037 
	C273.000000,96.000000 273.001221,96.000656 273.001221,96.000656 
z"/>
<path fill="#0A3661" opacity="1.000000" stroke="none" 
	d="
M275.538025,146.541656 
	C275.481628,146.575653 275.594391,146.507645 275.538025,146.541656 
z"/>
<path fill="#0A3661" opacity="1.000000" stroke="none" 
	d="
M272.999634,95.999542 
	C273.095154,95.966576 273.191071,95.934059 273.144104,95.951103 
	C273.001221,96.000656 273.000000,96.000000 272.999634,95.999542 
z"/>
</svg>